<svg xmlns="http://www.w3.org/2000/svg" viewBox="0 0 128 128" role="img" aria-label="agent-stack">
  <polygon points="50,80 60,80 58,93 49,92" fill="#FF9B66"/><polygon points="68,80 78,80 76,93 67,92" fill="#FF9B66"/><polygon points="34,58 8,56 1,67 7,78 34,78" fill="#B83408"/><polygon points="12,64 16,67 12,70 8,67" fill="#FFD5B8"/><polygon points="96,60 126,55 122,70 96,74" fill="#B83408"/><polygon points="24,60 104,60 110,80 18,80" fill="#F05A22"/><polygon points="36,42 92,42 100,60 28,60" fill="#FF9B66"/><polygon points="46,26 82,26 88,42 40,42" fill="#FFD5B8"/><polygon points="64,28 70,34 64,40 58,34" fill="#B83408"/><polygon points="28,80 46,80 44,100 26,98" fill="#B83408"/><polygon points="84,80 102,80 100,100 82,98" fill="#B83408"/>
</svg>
